<svg xmlns="http://www.w3.org/2000/svg" version="1.1" xmlns:xlink="http://www.w3.org/1999/xlink" xmlns:svgjs="http://svgjs.dev/svgjs" width="1000" height="1000" viewBox="0 0 1000 1000"><g transform="matrix(1,0,0,1,-0.14221556886212738,-0.14221556886229791)"><svg viewBox="0 0 334 334" data-background-color="#ffffff" preserveAspectRatio="xMidYMid meet" height="1000" width="1000" xmlns="http://www.w3.org/2000/svg" xmlns:xlink="http://www.w3.org/1999/xlink"><g id="tight-bounds" transform="matrix(1,0,0,1,0.04749999999998522,0.04750000000001364)"><svg viewBox="0 0 333.90454557049503 333.90454557049503" height="333.90454557049503" width="333.90454557049503"><g><svg></svg></g><g><svg viewBox="0 0 333.90454557049503 333.90454557049503" height="333.90454557049503" width="333.90454557049503"><g><path d="M0 166.952c0-92.205 74.747-166.952 166.952-166.952 92.205 0 166.952 74.747 166.953 166.952 0 92.205-74.747 166.952-166.953 166.953-92.205 0-166.952-74.747-166.952-166.953zM166.952 316.63c82.665 0 149.677-67.013 149.678-149.678 0-82.665-67.013-149.677-149.678-149.677-82.665 0-149.677 67.013-149.677 149.677 0 82.665 67.013 149.677 149.677 149.678z" data-fill-palette-color="tertiary" fill="#ff0000" stroke="transparent"></path><ellipse rx="160.27418187383762" ry="160.27418187383762" cx="166.95227278524752" cy="166.95227278524752" fill="#ff0000" stroke="transparent" stroke-width="0" fill-opacity="1" data-fill-palette-color="tertiary"></ellipse></g><g transform="matrix(1,0,0,1,98.81147088595958,71.17305217166896)"><svg viewBox="0 0 136.28160379857587 191.55844122715712" height="191.55844122715712" width="136.28160379857587"><g><svg viewBox="0 0 136.28160379857587 191.55844122715712" height="191.55844122715712" width="136.28160379857587"><g><svg viewBox="0 0 136.28160379857587 191.55844122715712" height="191.55844122715712" width="136.28160379857587"><g><svg viewBox="0 0 136.28160379857587 191.55844122715712" height="191.55844122715712" width="136.28160379857587"><g id="textblocktransform"><svg viewBox="0 0 136.28160379857587 191.55844122715712" height="191.55844122715712" width="136.28160379857587" id="textblock"><g><svg viewBox="0 0 136.28160379857587 191.55844122715712" height="191.55844122715712" width="136.28160379857587"><g transform="matrix(1,0,0,1,0,0)"><svg width="136.28160379857587" viewBox="4.349999904632568 -37.099998474121094 26.75 37.599998474121094" height="191.55844122715712" data-palette-color="#ffffff"><path d="M31.1-12.35L31.1-12.35Q31.1-7.9 29.58-5.05 28.05-2.2 25.05-0.85 22.05 0.5 17.75 0.5L17.75 0.5Q13.05 0.5 10.1-1 7.15-2.5 5.75-5.55 4.35-8.6 4.35-13.2L4.35-13.2 4.35-36.4Q4.35-37.1 4.95-37.1L4.95-37.1 8.55-37.1Q9.15-37.1 9.15-36.45L9.15-36.45 9.15-12.15Q9.15-7.6 11.4-5.4 13.65-3.2 18.05-3.2L18.05-3.2Q20.95-3.2 22.98-4.17 25-5.15 26.03-7.15 27.05-9.15 27.05-12.3L27.05-12.3 27.05-36.45Q27.05-37.1 27.6-37.1L27.6-37.1 30.55-37.1Q31.1-37.1 31.1-36.5L31.1-36.5 31.1-12.35Z" opacity="1" transform="matrix(1,0,0,1,0,0)" fill="#ffffff" class="wordmark-text-0" data-fill-palette-color="quaternary" id="text-0"></path></svg></g></svg></g></svg></g></svg></g><g></g></svg></g></svg></g></svg></g></svg></g><defs></defs></svg><rect width="333.90454557049503" height="333.90454557049503" fill="none" stroke="none" visibility="hidden"></rect></g></svg></g></svg>